<?xml version="1.0" encoding="utf-8"?>
<svg version="1.1" id="Layer_1" xmlns="http://www.w3.org/2000/svg" xmlns:xlink="http://www.w3.org/1999/xlink" x="0px" y="0px"
	 viewBox="0 0 524.4 100.3" style="enable-background:new 0 0 524.4 100.3;" xml:space="preserve">
<style type="text/css">
	.st0{fill:#0092C8;}
	.st1{fill:#465A65;}
</style>
<g>
	<g>
		<g>
			<path class="st0" d="M108.2,66.5c-11.8,0-18.5-6.2-18.5-19.9c0-14.3,6.8-22,18.3-22c9.3,0,15.5,5.1,16.5,14.9h-7
				c-1.2-5.8-4.7-8.4-9.5-8.4c-6.9,0-11,4.9-11,14.3c0,10.3,4,14.5,11,14.5c4.8,0,8-3.2,9.5-9.7h7C123.2,59.8,117,66.5,108.2,66.5z"
				/>
			<path class="st0" d="M129.3,65.4V7.9h6.9v57.5H129.3z"/>
			<path class="st0" d="M177.4,66.1c-4,0-5.8-1.9-6.3-6.4c-4,4.6-8.5,6.8-13.8,6.8c-7.8,0-13-4.2-13-11.7
				c0-13.7,16.1-13.3,26.1-14.5c0-0.6,0.1-1.3,0.1-2c0-5.8-2.4-7.2-8.5-7.2c-5.8,0-8.5,1.5-8.9,6.9H146c0.6-8.5,5.8-13.4,15.9-13.4
				c9.1,0,15.3,2,15.3,12.5v18.4c0,3.2,0.7,4.3,2.4,4.3c0.4,0,1-0.1,2-0.2v5.6C179.5,65.9,178.6,66.1,177.4,66.1z M170.4,46
				c-14.2,2-18.7,3.5-18.7,8.3c0,4.1,2.6,5.7,7.3,5.7c6.3,0,11.5-3.6,11.5-9V46z"/>
			<path class="st0" d="M201.4,66.5c-10.3,0-16-5.3-16-14.8h7.2c0.1,5.9,2.7,8.3,9,8.3c5.1,0,8.5-2.4,8.5-6c0-1.9-0.8-2-3.8-3.4
				l-12.6-4.9c-5.1-2.3-7-5-7-9.5c0-7.3,6.1-11.5,14.9-11.5c8,0,14.7,3.5,14.7,12.5h-7c-0.1-4.5-2.8-6-8-6c-4.3,0-7.6,1.3-7.6,4.3
				c0,1.6,1.1,2.8,3.4,3.8l11.7,4.2c6.7,2.8,8.6,4.3,8.6,9.5C217.4,60.9,210.9,66.5,201.4,66.5z"/>
			<path class="st0" d="M238.8,66.5c-10.3,0-16-5.3-16-14.8h7.2c0.1,5.9,2.7,8.3,9,8.3c5.1,0,8.5-2.4,8.5-6c0-1.9-0.8-2-3.8-3.4
				l-12.6-4.9c-5.1-2.3-7-5-7-9.5c0-7.3,6.1-11.5,14.9-11.5c8,0,14.7,3.5,14.7,12.5h-7c-0.1-4.5-2.8-6-8-6c-4.3,0-7.6,1.3-7.6,4.3
				c0,1.6,1.1,2.8,3.4,3.8l11.7,4.2c6.7,2.8,8.6,4.3,8.6,9.5C254.9,60.9,248.4,66.5,238.8,66.5z"/>
		</g>
		<g>
			<path class="st1" d="M310.5,65.4V39.6c0-6.3-2.1-8.4-6.8-8.4c-5.7,0-9.2,4.8-9.2,13.4v20.8h-6.9V40.4c0-7.7-1.4-9.3-6.1-9.3
				c-6,0-9.9,3.2-9.9,13.2v21h-6.9V25.7h6.9v5.1c4.2-4.7,7-6.2,11.7-6.2c4.6,0,7.3,1.7,10,6.2c4.1-4.7,7.1-6.2,12-6.2
				c8.9,0,12.1,5.3,12.1,13.7v27H310.5z"/>
			<path class="st1" d="M358.6,66.1c-4,0-5.8-1.9-6.3-6.4c-4,4.6-8.5,6.8-13.8,6.8c-7.8,0-13-4.2-13-11.7
				c0-13.7,16.1-13.3,26.1-14.5c0-0.6,0.1-1.3,0.1-2c0-5.8-2.4-7.2-8.5-7.2c-5.8,0-8.5,1.5-8.9,6.9h-7.1c0.6-8.5,5.8-13.4,16-13.4
				c9.1,0,15.3,2,15.3,12.5v18.4c0,3.2,0.7,4.3,2.4,4.3c0.4,0,1-0.1,2-0.2v5.6C360.6,65.9,359.7,66.1,358.6,66.1z M351.6,46
				c-14.2,2-18.7,3.5-18.7,8.3c0,4.1,2.6,5.7,7.3,5.7c6.3,0,11.5-3.6,11.5-9V46z"/>
			<path class="st1" d="M386.1,32.5c-8.8,0-10.4,6.6-10.4,14.4v18.4h-7V25.7h6.9v6.9c2.6-5.4,5.8-8,9.7-8c0.9,0,1.9,0.1,2.9,0.3v7.7
				C387.2,32.5,386.9,32.5,386.1,32.5z"/>
			<path class="st1" d="M417.9,65.4L406,46.3l-5.5,5.4v13.6h-6.9V7.9h6.9v34.8l16.3-17h9.1l-15.3,15.5l15.6,24.1H417.9z"/>
			<path class="st1" d="M466.1,47.5h-29c0.4,8.7,4.3,12.5,11.3,12.5c5.4,0,8.8-2.8,10-8.4h7.2c-1.9,9.3-8.5,14.9-17.4,14.9
				c-11.3,0-18.2-7.6-18.2-21.3c0-13.5,7.3-21.3,18.7-21.3c12.1,0,17.5,8.4,17.5,20.2C466.1,44.9,466.1,45.7,466.1,47.5z
				 M448.5,30.4c-6.4,0-10.1,3-11.1,10.5h21.7C458.7,33.8,454.7,30.4,448.5,30.4z"/>
			<path class="st1" d="M483.6,66.5c-6.6,0-8.5-2.7-8.5-12.1V31.8h-5.2v-6.1h5.2V15.4h6.9v10.3h6.6v6.1H482v23.2
				c0,4.1,0.9,5.1,4.3,5.1c0.6,0,1.3,0,2.2-0.1v6.1C487,66.2,485.2,66.5,483.6,66.5z"/>
			<path class="st1" d="M508.4,66.5c-10.3,0-16-5.3-16-14.8h7.2c0.1,5.9,2.7,8.3,9,8.3c5.1,0,8.5-2.4,8.5-6c0-1.9-0.8-2-3.8-3.4
				l-12.6-4.9c-5.1-2.3-7-5-7-9.5c0-7.3,6.1-11.5,14.9-11.5c8,0,14.7,3.5,14.7,12.5h-7c-0.1-4.5-2.8-6-8-6c-4.3,0-7.6,1.3-7.6,4.3
				c0,1.6,1.1,2.8,3.4,3.8l11.7,4.2c6.7,2.8,8.6,4.3,8.6,9.5C524.4,60.9,517.9,66.5,508.4,66.5z"/>
		</g>
	</g>
	<path class="st0" d="M38.2,0C17.1,0,0,17.1,0,38.2c0,16.9,11,31.2,26.2,36.2l-11.7,25.9c0,0,40.3-23.7,49.7-34.3
		c8.6-9.6,12.1-16.9,12.1-27.9C76.3,17.1,59.2,0,38.2,0z M28.6,48.8c2.7,2.8,6.2,4.3,10.3,4.3c3.2,0,5.8-0.7,7.9-2
		c2.1-1.4,3.7-3.4,4.7-6.1H64c-1.5,6.2-4.5,11.1-9,14.6c-4.4,3.5-9.8,5.3-16.2,5.3c-3.7,0-7.2-0.7-10.4-2c-3.2-1.3-6.1-3.3-8.6-5.9
		c-2.4-2.4-4.3-5.3-5.6-8.6c-1.3-3.3-2-6.6-2-10c0-3.6,0.6-6.9,1.8-10c1.2-3.1,3-5.9,5.4-8.4c2.6-2.8,5.6-4.9,8.9-6.3
		c3.3-1.4,6.9-2.2,10.6-2.2c6.2,0,11.5,1.8,16.1,5.3c4.5,3.5,7.5,8.2,9,14.2H51.6c-1.4-2.6-3.2-4.6-5.4-5.9c-2.2-1.3-4.8-2-7.8-2
		c-4,0-7.3,1.4-10,4.3c-2.7,2.9-4,6.5-4,10.8C24.4,42.4,25.8,45.9,28.6,48.8z"/>
</g>
</svg>
