<?xml version="1.0" encoding="UTF-8" standalone="no"?>
<!-- Generator: Adobe Illustrator 21.0.0, SVG Export Plug-In . SVG Version: 6.00 Build 0)  -->
<svg id="Ebene_1" style="enable-background:new 0 0 324.7 152.6" xmlns="http://www.w3.org/2000/svg" xml:space="preserve" viewBox="0 0 324.7 152.6" version="1.1" y="0px" x="0px" xmlns:xlink="http://www.w3.org/1999/xlink">
<style type="text/css">
	.st0{fill:url(#SVGID_1_);}
	.st1{fill:url(#SVGID_2_);}
	.st2{fill:#FFFFFF;}
</style>
	<linearGradient id="SVGID_1_" y2="151.98" gradientUnits="userSpaceOnUse" x2="162.46" y1=".036319" x1="162.46">
		<stop stop-color="#00795F" offset=".4028"/>
		<stop stop-color="#006650" offset=".6042"/>
	</linearGradient>
	<path class="st0" d="m321 65.5l-57.2-61.3c-3.5-3.8-10.5-4.2-13.5-4.2h-237.7c-6.8 0-12.3 5.6-12.3 12.4v127.3c0 6.8 5.5 12.3 12.3 12.3h237.7c7.8 0 11.1-2.9 13.5-5.5l57.3-62.5c4.7-5.3 4.7-13.3-0.1-18.5z"/>
	<linearGradient id="SVGID_2_" y2="5.4637" gradientUnits="userSpaceOnUse" x2="129.64" y1="75.135" x1="129.64">
		<stop stop-color="#fff" stop-opacity=".1" offset="0"/>
		<stop stop-color="#fff" stop-opacity=".3" offset="1"/>
	</linearGradient>
	<path class="st1" d="m253.7 6.3l-237-0.8c-7.8 0-11.1 4.7-11.1 12.5l0.5 56.9c-0.4 3.5 57.2-33.4 108.5-34.2 91.1-1.5 139.1-34.4 139.1-34.4z"/>
	<path class="st2" d="m15.5 147.4c-5.8 0-10.5-4.7-10.5-10.5v-122.4c0-5.8 4.7-10.5 10.5-10.5h230.9c3.9-0.2 9.3-0.3 13.6 4.4l54.3 58.2c4.1 4.4 4.2 11.4 0.1 15.8l-53.3 58.1c-4.8 4.6-9.7 6.6-16.1 6.7l-229.5 0.2zm232.9-139.9h-1.8-231c-3.8 0-7 3.1-7 7v122.4c0 3.8 3.1 7 7 7l229.6-0.2c5.5 0 9.5-1.7 13.6-5.6l53.2-58c2.9-3.1 2.8-8-0.1-11.1l-54.3-58.2c-2.3-2.4-4.9-3.3-9.2-3.3z"/>
		<path class="st2" d="m46.9 86.9l11.3 30.3h-6.9l-2.3-6.8h-11.3l-2.4 6.8h-6.7l11.4-30.3h6.9zm0.4 18.6l-3.8-11.1h-0.1l-4 11.1h7.9z"/>
		<path class="st2" d="m75.1 117.2v-3.1h-0.1c-0.8 1.3-1.8 2.2-3 2.8s-2.5 0.9-3.7 0.9c-1.6 0-2.9-0.2-4-0.6-1-0.4-1.8-1-2.4-1.8s-1-1.7-1.3-2.8c-0.2-1.1-0.4-2.4-0.4-3.7v-13.7h6v12.4c0 1.8 0.3 3.2 0.8 4.1 0.6 0.9 1.6 1.3 3 1.3 1.6 0 2.8-0.5 3.6-1.5 0.7-1 1.1-2.6 1.1-4.8v-11.5h6v22h-5.6z"/>
		<path class="st2" d="m97.5 95.2v4h-4.4v10.9c0 1 0.2 1.7 0.5 2s1 0.5 2 0.5h1c0.3 0 0.6-0.1 0.9-0.1v4.7c-0.5 0.1-1.1 0.1-1.7 0.2h-1.8c-0.9 0-1.8-0.1-2.7-0.2-0.8-0.1-1.6-0.4-2.2-0.7-0.6-0.4-1.1-0.9-1.5-1.6s-0.6-1.6-0.6-2.7v-13h-3.7v-4h3.7v-6.6h6v6.6h4.5z"/>
		<path class="st2" d="m100.5 101.5c0.5-1.4 1.3-2.6 2.3-3.7 1-1 2.2-1.8 3.6-2.3 1.4-0.6 2.9-0.8 4.7-0.8 1.7 0 3.3 0.3 4.7 0.8 1.4 0.6 2.6 1.3 3.6 2.3s1.8 2.2 2.3 3.7c0.5 1.4 0.8 3 0.8 4.8s-0.3 3.3-0.8 4.8c-0.5 1.4-1.3 2.6-2.3 3.6s-2.2 1.8-3.6 2.3-3 0.8-4.7 0.8-3.3-0.3-4.7-0.8-2.6-1.3-3.6-2.3-1.8-2.2-2.3-3.6-0.8-3-0.8-4.8 0.3-3.4 0.8-4.8zm5.5 7.3c0.2 0.8 0.5 1.6 0.9 2.3s1 1.2 1.6 1.6c0.7 0.4 1.5 0.6 2.6 0.6s1.9-0.2 2.6-0.6c0.7-0.4 1.2-0.9 1.7-1.6 0.4-0.7 0.7-1.4 0.9-2.3 0.2-0.8 0.3-1.7 0.3-2.6s-0.1-1.7-0.3-2.6c-0.2-0.8-0.5-1.6-0.9-2.3s-1-1.2-1.7-1.6-1.6-0.6-2.6-0.6-1.9 0.2-2.6 0.6c-0.7 0.4-1.2 0.9-1.6 1.6s-0.7 1.4-0.9 2.3-0.3 1.7-0.3 2.6 0.1 1.8 0.3 2.6z"/>
		<path class="st2" d="m132.2 95.2v3h0.1c0.8-1.1 1.7-2 2.9-2.6 1.1-0.6 2.4-0.9 3.8-0.9s2.7 0.3 3.8 0.8 2 1.5 2.6 2.8c0.7-1 1.5-1.8 2.7-2.5 1.1-0.7 2.4-1.1 4-1.1 1.2 0 2.2 0.1 3.2 0.4s1.8 0.7 2.6 1.4c0.7 0.6 1.3 1.4 1.7 2.4s0.6 2.2 0.6 3.6v14.7h-6v-12.5c0-0.7 0-1.4-0.1-2.1s-0.2-1.2-0.5-1.7-0.6-0.9-1.1-1.1c-0.5-0.3-1.2-0.4-2-0.4s-1.5 0.2-2.1 0.5c-0.5 0.3-0.9 0.8-1.2 1.3s-0.5 1.1-0.6 1.8-0.1 1.3-0.1 2v12.2h-6v-12.3-1.9c0-0.6-0.1-1.2-0.4-1.8-0.2-0.5-0.6-1-1.1-1.3s-1.2-0.5-2.2-0.5c-0.3 0-0.7 0.1-1.1 0.2-0.5 0.1-0.9 0.4-1.4 0.7-0.4 0.4-0.8 0.9-1.1 1.5-0.3 0.7-0.5 1.5-0.5 2.6v12.7h-6v-22h5.5z"/>
		<path class="st2" d="m165 101.5c0.5-1.4 1.3-2.6 2.3-3.7 1-1 2.2-1.8 3.6-2.3 1.4-0.6 2.9-0.8 4.7-0.8 1.7 0 3.3 0.3 4.7 0.8 1.4 0.6 2.6 1.3 3.6 2.3s1.8 2.2 2.3 3.7c0.5 1.4 0.8 3 0.8 4.8s-0.3 3.3-0.8 4.8c-0.5 1.4-1.3 2.6-2.3 3.6s-2.2 1.8-3.6 2.3-3 0.8-4.7 0.8-3.3-0.3-4.7-0.8-2.6-1.3-3.6-2.3-1.8-2.2-2.3-3.6-0.8-3-0.8-4.8 0.2-3.4 0.8-4.8zm5.5 7.3c0.2 0.8 0.5 1.6 0.9 2.3s1 1.2 1.6 1.6c0.7 0.4 1.5 0.6 2.6 0.6s1.9-0.2 2.6-0.6c0.7-0.4 1.2-0.9 1.7-1.6 0.4-0.7 0.7-1.4 0.9-2.3 0.2-0.8 0.3-1.7 0.3-2.6s-0.1-1.7-0.3-2.6c-0.2-0.8-0.5-1.6-0.9-2.3s-1-1.2-1.7-1.6-1.6-0.6-2.6-0.6-1.9 0.2-2.6 0.6c-0.7 0.4-1.2 0.9-1.6 1.6s-0.7 1.4-0.9 2.3-0.3 1.7-0.3 2.6 0.1 1.8 0.3 2.6z"/>
		<path class="st2" d="m202.9 95.2v4h-4.4v10.9c0 1 0.2 1.7 0.5 2s1 0.5 2 0.5h1c0.3 0 0.6-0.1 0.9-0.1v4.7c-0.5 0.1-1.1 0.1-1.7 0.2h-1.8c-0.9 0-1.8-0.1-2.7-0.2-0.8-0.1-1.6-0.4-2.2-0.7-0.6-0.4-1.1-0.9-1.5-1.6s-0.6-1.6-0.6-2.7v-13h-3.7v-4h3.7v-6.6h6v6.6h4.5z"/>
		<path class="st2" d="m205.9 91.8v-5h6v5h-6zm6.1 3.4v22h-6v-22h6z"/>
		<path class="st2" d="m222.2 117.2l-7.5-22h6.3l4.6 15h0.1l4.6-15h6l-7.4 22h-6.7z"/>
		<path class="st2" d="m245.3 111.9c0.9 0.9 2.2 1.3 3.9 1.3 1.2 0 2.3-0.3 3.1-0.9 0.9-0.6 1.4-1.3 1.6-1.9h5.3c-0.9 2.6-2.2 4.5-3.9 5.7-1.8 1.1-3.9 1.7-6.4 1.7-1.7 0-3.3-0.3-4.7-0.8-1.4-0.6-2.6-1.3-3.5-2.4-1-1-1.7-2.2-2.2-3.7-0.5-1.4-0.8-3-0.8-4.7 0-1.6 0.3-3.2 0.8-4.6s1.3-2.6 2.3-3.7c1-1 2.2-1.8 3.5-2.4 1.4-0.6 2.9-0.9 4.6-0.9 1.9 0 3.5 0.4 4.9 1.1s2.5 1.7 3.4 2.9 1.5 2.6 1.9 4.2 0.5 3.2 0.4 4.9h-15.9c0.3 1.9 0.8 3.4 1.7 4.2zm6.8-11.5c-0.7-0.8-1.8-1.2-3.3-1.2-1 0-1.8 0.2-2.4 0.5s-1.1 0.7-1.5 1.2-0.7 1-0.8 1.5c-0.2 0.5-0.2 1-0.3 1.4h9.8c-0.3-1.5-0.8-2.6-1.5-3.4z"/>
	<path class="st2" d="m59.1 30.9v7.7h-20.1v9.6h17.4v7.1h-17.4v17.1h-9.1v-41.5h29.2z"/>
	<path class="st2" d="m63.7 46.8c0.9-1.3 1.9-2.3 3.3-3.1 1.3-0.8 2.8-1.3 4.4-1.7 1.6-0.3 3.3-0.5 5-0.5 1.5 0 3 0.1 4.6 0.3 1.5 0.2 3 0.6 4.2 1.2 1.3 0.6 2.3 1.5 3.1 2.6s1.2 2.6 1.2 4.4v15.6c0 1.4 0.1 2.7 0.2 3.9 0.2 1.2 0.4 2.2 0.8 2.8h-8.4c-0.2-0.5-0.3-0.9-0.4-1.4s-0.2-1-0.2-1.5c-1.3 1.4-2.9 2.3-4.6 2.8-1.8 0.5-3.6 0.8-5.5 0.8-1.4 0-2.8-0.2-4-0.5s-2.3-0.9-3.3-1.6c-0.9-0.7-1.7-1.7-2.2-2.8s-0.8-2.5-0.8-4c0-1.7 0.3-3.1 0.9-4.2s1.4-2 2.3-2.6c0.9-0.7 2-1.2 3.3-1.5 1.2-0.3 2.4-0.6 3.7-0.8 1.2-0.2 2.5-0.3 3.7-0.5 1.2-0.1 2.3-0.3 3.2-0.5s1.7-0.6 2.2-1 0.8-1.1 0.8-1.9c0-0.9-0.1-1.6-0.4-2.1s-0.7-0.9-1.2-1.2-1-0.5-1.7-0.6c-0.6-0.1-1.3-0.1-2.1-0.1-1.6 0-2.9 0.3-3.8 1s-1.5 1.9-1.6 3.5h-8.2c0.2-1.9 0.7-3.5 1.5-4.8zm16.3 11.6c-0.5 0.2-1.1 0.3-1.7 0.4s-1.2 0.2-1.9 0.3-1.3 0.2-2 0.3c-0.6 0.1-1.2 0.3-1.8 0.5s-1.1 0.5-1.6 0.8c-0.4 0.3-0.8 0.7-1.1 1.2s-0.4 1.1-0.4 1.9c0 0.7 0.1 1.4 0.4 1.9s0.6 0.9 1.1 1.2 1 0.5 1.6 0.6 1.3 0.2 1.9 0.2c1.6 0 2.9-0.3 3.8-0.8s1.5-1.2 2-1.9c0.4-0.8 0.7-1.5 0.8-2.3s0.1-1.4 0.1-1.9v-3.1c-0.2 0.3-0.7 0.6-1.2 0.7z"/>
	<path class="st2" d="m102.9 64.9c0.4 0.6 0.8 1.2 1.4 1.6s1.2 0.7 2 0.9 1.5 0.3 2.4 0.3c0.6 0 1.2-0.1 1.8-0.2s1.2-0.3 1.7-0.6 1-0.7 1.3-1.2 0.5-1.1 0.5-1.8c0-1.2-0.8-2.2-2.5-2.8-1.6-0.6-3.9-1.2-6.9-1.9-1.2-0.3-2.4-0.6-3.5-1s-2.2-0.9-3.1-1.5-1.6-1.4-2.1-2.3-0.8-2-0.8-3.3c0-1.9 0.4-3.5 1.1-4.8 0.8-1.2 1.8-2.2 3-2.9s2.6-1.2 4.2-1.5c1.5-0.3 3.1-0.4 4.8-0.4 1.6 0 3.2 0.2 4.7 0.5s2.9 0.8 4.1 1.6c1.2 0.7 2.2 1.7 3 2.9s1.3 2.8 1.4 4.6h-7.8c-0.1-1.6-0.7-2.7-1.8-3.2-1.1-0.6-2.4-0.8-3.8-0.8-0.5 0-1 0-1.5 0.1s-1 0.2-1.5 0.4c-0.4 0.2-0.8 0.5-1.1 0.8-0.3 0.4-0.5 0.9-0.5 1.5 0 0.7 0.3 1.3 0.8 1.8s1.2 0.8 2.1 1.1 1.9 0.6 3 0.8 2.3 0.5 3.4 0.8c1.2 0.3 2.4 0.6 3.5 1s2.2 0.9 3.1 1.5 1.6 1.4 2.1 2.4c0.5 0.9 0.8 2.1 0.8 3.5 0 2-0.4 3.6-1.2 5-0.8 1.3-1.8 2.4-3.1 3.2s-2.7 1.4-4.4 1.7c-1.6 0.3-3.3 0.5-5 0.5s-3.4-0.2-5.1-0.5-3.1-0.9-4.4-1.7-2.4-1.9-3.2-3.2-1.3-3-1.4-5h7.8c0.1 0.7 0.3 1.5 0.7 2.1z"/>
	<path class="st2" d="m143.6 42.4v5.5h-6v14.9c0 1.4 0.2 2.3 0.7 2.8s1.4 0.7 2.8 0.7c0.5 0 0.9 0 1.3-0.1 0.4 0 0.8-0.1 1.2-0.2v6.4c-0.7 0.1-1.5 0.2-2.3 0.2-0.9 0-1.7 0.1-2.5 0.1-1.3 0-2.5-0.1-3.6-0.3s-2.1-0.5-3-1-1.6-1.2-2.1-2.1-0.8-2.1-0.8-3.7v-17.7h-5v-5.5h5v-9h8.2v9h6.1z"/>
	<path class="st2" d="m156.7 30.9v41.5h-8.2v-41.5h8.2z"/>
	<path class="st2" d="m164.3 46.8c0.9-1.3 1.9-2.3 3.3-3.1 1.3-0.8 2.8-1.3 4.4-1.7 1.6-0.3 3.3-0.5 5-0.5 1.5 0 3 0.1 4.6 0.3 1.5 0.2 3 0.6 4.2 1.2 1.3 0.6 2.3 1.5 3.1 2.6s1.2 2.6 1.2 4.4v15.6c0 1.4 0.1 2.7 0.2 3.9 0.2 1.2 0.4 2.2 0.8 2.8h-8.4c-0.2-0.5-0.3-0.9-0.4-1.4s-0.2-1-0.2-1.5c-1.3 1.4-2.9 2.3-4.6 2.8-1.8 0.5-3.6 0.8-5.5 0.8-1.4 0-2.8-0.2-4-0.5s-2.3-0.9-3.3-1.6c-0.9-0.7-1.7-1.7-2.2-2.8s-0.8-2.5-0.8-4c0-1.7 0.3-3.1 0.9-4.2s1.4-2 2.3-2.6c0.9-0.7 2-1.2 3.3-1.5 1.2-0.3 2.4-0.6 3.7-0.8 1.2-0.2 2.5-0.3 3.7-0.5 1.2-0.1 2.3-0.3 3.2-0.5s1.7-0.6 2.2-1 0.8-1.1 0.8-1.9c0-0.9-0.1-1.6-0.4-2.1s-0.7-0.9-1.2-1.2-1-0.5-1.7-0.6c-0.6-0.1-1.3-0.1-2.1-0.1-1.6 0-2.9 0.3-3.8 1s-1.5 1.9-1.6 3.5h-8.2c0.1-1.9 0.6-3.5 1.5-4.8zm16.3 11.6c-0.5 0.2-1.1 0.3-1.7 0.4s-1.2 0.2-1.9 0.3-1.3 0.2-2 0.3c-0.6 0.1-1.2 0.3-1.8 0.5s-1.1 0.5-1.6 0.8c-0.4 0.3-0.8 0.7-1.1 1.2s-0.4 1.1-0.4 1.9c0 0.7 0.1 1.4 0.4 1.9s0.6 0.9 1.1 1.2 1 0.5 1.6 0.6 1.3 0.2 1.9 0.2c1.6 0 2.9-0.3 3.8-0.8s1.5-1.2 2-1.9c0.4-0.8 0.7-1.5 0.8-2.3s0.1-1.4 0.1-1.9v-3.1c-0.3 0.3-0.7 0.6-1.2 0.7z"/>
	<path class="st2" d="m204.3 42.4v4.2h0.2c1-1.7 2.4-3 4.1-3.8s3.4-1.2 5.1-1.2c2.2 0 4 0.3 5.4 0.9s2.5 1.4 3.3 2.5 1.4 2.4 1.7 3.9 0.5 3.2 0.5 5.1v18.5h-8.2v-17c0-2.5-0.4-4.3-1.2-5.5s-2.1-1.8-4.1-1.8c-2.2 0-3.9 0.7-4.9 2s-1.5 3.5-1.5 6.6v15.7h-8.2v-30h7.8z"/>
	<path class="st2" d="m239.8 65.2c1.2 1.2 3 1.8 5.3 1.8 1.7 0 3.1-0.4 4.3-1.2s1.9-1.7 2.2-2.6h7.3c-1.2 3.6-2.9 6.2-5.3 7.7s-5.3 2.3-8.7 2.3c-2.4 0-4.5-0.4-6.4-1.1-1.9-0.8-3.5-1.8-4.8-3.2s-2.3-3.1-3-5-1.1-4.1-1.1-6.4c0-2.2 0.4-4.3 1.1-6.3 0.7-1.9 1.8-3.6 3.1-5 1.4-1.4 3-2.5 4.8-3.3 1.9-0.8 4-1.2 6.2-1.2 2.6 0 4.8 0.5 6.7 1.5s3.5 2.3 4.7 4 2.1 3.6 2.6 5.7 0.7 4.4 0.6 6.7h-21.7c0.1 2.5 0.8 4.4 2.1 5.6zm9.3-15.8c-1-1.1-2.5-1.6-4.5-1.6-1.3 0-2.4 0.2-3.3 0.7-0.9 0.4-1.6 1-2.1 1.7s-0.9 1.4-1.1 2.1-0.3 1.4-0.4 2h13.4c-0.3-2.2-1-3.8-2-4.9z"/>
</svg>
