<?xml version="1.0" encoding="utf-8"?>
<!-- Generator: Adobe Illustrator 16.0.0, SVG Export Plug-In . SVG Version: 6.00 Build 0)  -->
<!DOCTYPE svg PUBLIC "-//W3C//DTD SVG 1.1//EN" "http://www.w3.org/Graphics/SVG/1.1/DTD/svg11.dtd">
<svg version="1.1" id="Ebene_1" xmlns="http://www.w3.org/2000/svg" xmlns:xlink="http://www.w3.org/1999/xlink" x="0px" y="0px"
	 width="262px" height="82px" viewBox="0 0 262 82" enable-background="new 0 0 262 82" xml:space="preserve">
<g>
	<g>
		<defs>
			<rect id="SVGID_1_" width="261.981" height="83.834"/>
		</defs>
		<clipPath id="SVGID_2_">
			<use xlink:href="#SVGID_1_"  overflow="visible"/>
		</clipPath>
		<polygon clip-path="url(#SVGID_2_)" fill="#0B3060" points="0.068,0 0.068,83.834 262.051,83.834 262.051,0 0.068,0 		"/>
	</g>
	<path fill="#FFFFFF" d="M46.34,25.648c0-0.46-0.333-0.783-0.808-0.783h-2.755c-0.38,0-0.713,0.276-0.808,0.783l-3.456,29.313
		c-0.095,0.461-0.048,0.691-0.238,0.691c-0.189,0-0.237-0.276-0.333-0.691l-4.655-27.068c-0.333-1.243-0.998-1.84-2.233-1.84h-3.042
		c-1.234,0-1.9,0.598-2.232,1.84l-4.656,27.068c-0.095,0.415-0.143,0.691-0.333,0.691c-0.189,0-0.143-0.23-0.237-0.691
		l-3.457-29.313c-0.095-0.506-0.427-0.783-0.807-0.783h-2.756c-0.476,0-0.807,0.322-0.807,0.783c0,0.046,0,0.093,0,0.138
		l4.121,31.108c0.333,1.887,1.426,2.347,2.946,2.347h1.996c1.33,0,2.328-0.919,2.708-2.301L29.2,29.872
		c0.095-0.415,0.143-0.415,0.286-0.415c0.047,0,0.047,0,0.047,0s0,0,0.048,0c0.143,0,0.19,0,0.285,0.415l4.656,27.069
		c0.38,1.382,1.378,2.301,2.708,2.301h2.043c1.52,0,2.613-0.46,2.945-2.347l4.122-31.108C46.34,25.741,46.34,25.694,46.34,25.648
		 M56.216,58.136V25.741c0-0.507-0.379-0.875-0.855-0.875h-2.613c-0.522,0-0.854,0.415-0.854,0.875v32.395
		c0,0.508,0.38,0.923,0.854,0.923h2.613C55.883,59.059,56.216,58.599,56.216,58.136L56.216,58.136z M80.856,58.449V25.326
		c0-0.507-0.38-0.875-0.855-0.875h-2.423c-0.522,0-0.902,0.414-0.902,0.875v8.04c0,0-3.216,0.008-5.021-0.022
		c-6.936-0.118-10.895,4.131-10.895,11.355v3.313c0,6.903,3.278,11.368,10.357,11.368c2.898,0,6.232,0.066,9.178-0.484
		C80.617,58.808,80.871,58.63,80.856,58.449L80.856,58.449z M76.675,55.561c-0.414,0.323-3.943,0.274-5.559,0.274
		c-4.704,0-6.177-2.806-6.177-7.822v-3.313c0-4.923,1.54-7.331,6.177-7.73c1.92-0.166,5.559,0.057,5.559,0.057V55.561L76.675,55.561
		z M111.051,44.931v-5.937c0-10.217-5.37-14.45-12.829-14.45c-7.459,0-12.876,4.233-12.876,14.45v5.937
		c0,10.215,5.417,14.45,12.876,14.45C105.681,59.381,111.051,55.146,111.051,44.931L111.051,44.931z M106.679,44.931
		c0,7.73-3.278,10.677-8.457,10.677c-5.227,0-8.505-2.946-8.505-10.677v-5.937c0-7.731,3.326-10.676,8.505-10.676
		c5.226,0,8.457,2.945,8.457,10.676V44.931L106.679,44.931z"/>
	<path fill="#FFFFFF" d="M138.331,43.771v9.175h1.306v-9.175H138.331L138.331,43.771z M145.382,45.769
		c-0.456,0-0.876,0.104-1.257,0.319c-0.378,0.212-0.7,0.505-0.955,0.878l-0.11-1.04h-1.085v7.02h1.264v-4.981
		c0.257-0.397,0.53-0.704,0.826-0.918c0.293-0.212,0.631-0.321,1.018-0.321c0.376,0,0.659,0.104,0.851,0.31
		c0.193,0.204,0.29,0.553,0.29,1.052v4.859h1.264v-5.032c0-0.668-0.186-1.189-0.556-1.571
		C146.559,45.959,146.043,45.769,145.382,45.769L145.382,45.769L145.382,45.769z M151.994,45.769c-0.494,0-0.94,0.082-1.34,0.245
		c-0.397,0.166-0.711,0.396-0.934,0.693c-0.225,0.299-0.339,0.628-0.339,0.991c0,0.508,0.175,0.924,0.518,1.251
		c0.344,0.331,0.898,0.592,1.669,0.787c0.478,0.123,0.84,0.24,1.087,0.353c0.247,0.11,0.421,0.239,0.522,0.387
		c0.1,0.147,0.15,0.34,0.15,0.578c0,0.329-0.139,0.589-0.419,0.779c-0.278,0.19-0.657,0.286-1.134,0.286
		c-0.741,0-1.421-0.227-2.035-0.679l-0.672,0.747c0.723,0.611,1.635,0.916,2.735,0.916c0.797,0,1.472-0.181,2.026-0.547
		c0.555-0.362,0.831-0.89,0.831-1.583c0-0.584-0.199-1.047-0.596-1.384c-0.399-0.337-1.003-0.604-1.81-0.8
		c-0.587-0.151-0.991-0.305-1.216-0.466c-0.226-0.159-0.337-0.381-0.337-0.664s0.118-0.508,0.357-0.674
		c0.238-0.164,0.563-0.246,0.975-0.246c0.332,0,0.646,0.048,0.943,0.147c0.297,0.096,0.611,0.247,0.942,0.452l0.535-0.772
		c-0.358-0.268-0.733-0.468-1.128-0.6C152.936,45.835,152.491,45.769,151.994,45.769L151.994,45.769L151.994,45.769z
		 M159.214,51.814c-0.358,0.186-0.679,0.278-0.963,0.278c-0.312,0-0.533-0.082-0.666-0.245c-0.132-0.166-0.2-0.429-0.2-0.794v-4.182
		h1.582l0.138-0.946h-1.72v-1.729l-1.264,0.146v1.583h-1.265v0.946h1.265v4.234c0,0.649,0.171,1.142,0.516,1.484
		c0.343,0.342,0.823,0.513,1.438,0.513c0.603,0,1.146-0.158,1.621-0.478L159.214,51.814L159.214,51.814z M161.001,45.926v7.02h1.265
		v-7.02H161.001L161.001,45.926z M161.619,42.56c-0.256,0-0.466,0.079-0.633,0.237c-0.164,0.162-0.246,0.361-0.246,0.6
		c0,0.241,0.082,0.438,0.246,0.596c0.167,0.153,0.377,0.23,0.633,0.23c0.268,0,0.48-0.077,0.646-0.23
		c0.165-0.157,0.246-0.354,0.246-0.596c0-0.238-0.081-0.438-0.246-0.6C162.1,42.639,161.887,42.56,161.619,42.56L161.619,42.56
		L161.619,42.56z M167.947,51.814c-0.357,0.186-0.679,0.278-0.963,0.278c-0.312,0-0.534-0.082-0.666-0.245
		c-0.133-0.166-0.2-0.429-0.2-0.794v-4.182h1.581l0.138-0.946h-1.719v-1.729l-1.265,0.146v1.583h-1.265v0.946h1.265v4.234
		c0,0.649,0.172,1.142,0.515,1.484c0.344,0.342,0.823,0.513,1.438,0.513c0.606,0,1.251-0.158,1.728-0.478L167.947,51.814
		L167.947,51.814z M174.777,45.926h-1.266v5.01c-0.503,0.806-1.108,1.211-1.814,1.211c-0.394,0-0.678-0.102-0.854-0.299
		c-0.173-0.2-0.26-0.542-0.26-1.021v-4.901h-1.265v5.036c0,0.684,0.18,1.211,0.536,1.584c0.357,0.372,0.852,0.558,1.484,0.558
		c0.514,0,0.949-0.098,1.308-0.298c0.355-0.2,0.673-0.518,0.947-0.952l0.097,1.092h1.086V45.926L174.777,45.926z M180.35,51.814
		c-0.359,0.186-0.681,0.278-0.963,0.278c-0.312,0-0.537-0.082-0.667-0.245c-0.135-0.166-0.201-0.429-0.201-0.794v-4.182h1.581
		l0.137-0.946h-1.718v-1.729l-1.264,0.146v1.583h-1.267v0.946h1.267v4.234c0,0.649,0.171,1.142,0.515,1.484
		c0.344,0.342,0.821,0.513,1.438,0.513c0.604,0,1.145-0.158,1.622-0.478L180.35,51.814L180.35,51.814z M189.83,42.959v3.675
		c-0.56-0.577-1.209-0.865-1.953-0.865c-0.577,0-1.082,0.157-1.512,0.471c-0.433,0.315-0.761,0.754-0.99,1.312
		c-0.229,0.56-0.343,1.199-0.343,1.918c0,1.11,0.238,1.993,0.722,2.649c0.48,0.656,1.152,0.984,2.015,0.984
		c0.439,0,0.837-0.098,1.195-0.298c0.357-0.2,0.654-0.477,0.895-0.833l0.121,0.973h1.115v-9.839L189.83,42.959L189.83,42.959z
		 M188.041,52.132c-0.53,0-0.938-0.222-1.224-0.664c-0.282-0.446-0.425-1.12-0.425-2.024c0-0.898,0.154-1.572,0.46-2.025
		c0.307-0.452,0.742-0.678,1.3-0.678c0.339,0,0.644,0.077,0.914,0.233c0.271,0.153,0.524,0.383,0.764,0.687v3.434
		c-0.258,0.347-0.523,0.606-0.799,0.779C188.756,52.045,188.427,52.132,188.041,52.132L188.041,52.132L188.041,52.132z
		 M198.774,49.229c0-1.08-0.259-1.931-0.771-2.541c-0.514-0.614-1.251-0.919-2.214-0.919c-0.613,0-1.146,0.157-1.602,0.479
		c-0.453,0.32-0.803,0.763-1.045,1.326c-0.242,0.562-0.361,1.207-0.361,1.937c0,1.118,0.28,1.997,0.844,2.637
		c0.562,0.639,1.349,0.957,2.356,0.957c0.917,0,1.761-0.291,2.529-0.878l-0.55-0.732c-0.32,0.212-0.628,0.369-0.919,0.468
		c-0.296,0.096-0.615,0.144-0.964,0.144c-0.55,0-1-0.18-1.347-0.544c-0.349-0.365-0.55-0.933-0.605-1.706h4.619
		C198.764,49.643,198.774,49.435,198.774,49.229L198.774,49.229L198.774,49.229z M197.522,48.949h-3.396
		c0.091-1.472,0.657-2.209,1.692-2.209c0.566,0,0.993,0.183,1.277,0.547c0.283,0.363,0.426,0.89,0.426,1.583V48.949L197.522,48.949z
		 M203.849,45.769c-0.439,0-0.824,0.132-1.153,0.399c-0.331,0.267-0.592,0.661-0.784,1.184l-0.124-1.426H200.7v7.02h1.267v-4.008
		c0.155-0.675,0.37-1.172,0.645-1.493c0.277-0.319,0.638-0.479,1.087-0.479c0.2,0,0.411,0.027,0.633,0.08l0.233-1.197
		C204.344,45.795,204.105,45.769,203.849,45.769L203.849,45.769L203.849,45.769z M215.729,52.945l-3.025-9.175h-1.648l-3.04,9.175
		h1.32l0.716-2.304h3.587l0.716,2.304H215.729L215.729,52.945z M211.852,44.822l1.472,4.795h-2.956L211.852,44.822L211.852,44.822z
		 M220.123,43.612c-0.787,0-1.484,0.188-2.091,0.564c-0.602,0.378-1.072,0.925-1.407,1.645s-0.502,1.571-0.502,2.557
		c0,1.003,0.167,1.859,0.502,2.569s0.804,1.247,1.4,1.609c0.603,0.366,1.302,0.547,2.098,0.547c0.798,0,1.496-0.186,2.097-0.558
		c0.601-0.373,1.067-0.915,1.402-1.626c0.335-0.71,0.502-1.562,0.502-2.556c0-1.013-0.167-1.872-0.502-2.582
		c-0.335-0.711-0.802-1.249-1.402-1.621C221.619,43.797,220.921,43.612,220.123,43.612L220.123,43.612L220.123,43.612z
		 M220.123,44.649c1.742,0,2.611,1.238,2.611,3.715c0,2.468-0.869,3.701-2.611,3.701c-0.816,0-1.454-0.297-1.916-0.892
		c-0.465-0.594-0.696-1.527-0.696-2.796c0-1.279,0.229-2.221,0.688-2.822C218.658,44.952,219.3,44.649,220.123,44.649
		L220.123,44.649L220.123,44.649z M225.867,43.771v9.175h1.305v-9.175H225.867L225.867,43.771z M230.842,43.771l-3.6,4.274
		l3.738,4.9h1.607l-3.848-4.981l3.587-4.193H230.842L230.842,43.771z"/>
	<path fill="#FFFFFF" d="M146.772,27.323l-1.582,8.069l-1.869-8.069h-1.389l-1.827,8.069l-1.526-8.069H137.3l1.927,9.174h1.633
		l1.761-7.683l1.747,7.683h1.676l1.925-9.174H146.772L146.772,27.323z M149.31,29.48v7.018h1.266V29.48H149.31L149.31,29.48z
		 M149.928,26.112c-0.257,0-0.467,0.08-0.632,0.24c-0.166,0.16-0.248,0.359-0.248,0.6c0,0.239,0.082,0.437,0.248,0.592
		c0.165,0.156,0.375,0.233,0.632,0.233c0.266,0,0.481-0.078,0.647-0.233c0.165-0.155,0.246-0.353,0.246-0.592
		c0-0.241-0.081-0.439-0.246-0.6C150.409,26.191,150.193,26.112,149.928,26.112L149.928,26.112L149.928,26.112z M155.151,29.321
		c-0.494,0-0.942,0.082-1.339,0.247c-0.399,0.164-0.712,0.395-0.937,0.692c-0.224,0.297-0.336,0.627-0.336,0.991
		c0,0.506,0.17,0.924,0.515,1.252c0.345,0.329,0.9,0.59,1.671,0.786c0.477,0.125,0.839,0.242,1.086,0.353
		c0.247,0.111,0.422,0.239,0.522,0.385c0.102,0.146,0.152,0.34,0.152,0.58c0,0.329-0.141,0.588-0.42,0.779
		c-0.28,0.191-0.656,0.287-1.134,0.287c-0.743,0-1.421-0.226-2.036-0.679l-0.673,0.746c0.725,0.613,1.637,0.918,2.735,0.918
		c0.798,0,1.475-0.182,2.028-0.545c0.554-0.364,0.832-0.893,0.832-1.585c0-0.585-0.2-1.047-0.599-1.385
		c-0.399-0.337-1-0.604-1.808-0.798c-0.588-0.151-0.992-0.306-1.217-0.466c-0.224-0.16-0.336-0.381-0.336-0.666
		c0-0.284,0.118-0.508,0.357-0.672c0.237-0.165,0.563-0.247,0.977-0.247c0.329,0,0.642,0.049,0.939,0.146
		c0.3,0.099,0.612,0.249,0.942,0.454l0.537-0.772c-0.357-0.266-0.734-0.466-1.127-0.599
		C156.091,29.387,155.646,29.321,155.151,29.321L155.151,29.321L155.151,29.321z M160.997,29.321c-0.493,0-0.942,0.082-1.34,0.247
		c-0.398,0.164-0.71,0.395-0.936,0.692c-0.224,0.297-0.336,0.627-0.336,0.991c0,0.506,0.172,0.924,0.516,1.252
		c0.344,0.329,0.9,0.59,1.669,0.786c0.479,0.125,0.84,0.242,1.087,0.353c0.246,0.111,0.424,0.239,0.521,0.385
		c0.101,0.146,0.152,0.34,0.152,0.58c0,0.329-0.14,0.588-0.42,0.779c-0.279,0.191-0.657,0.287-1.134,0.287
		c-0.742,0-1.42-0.226-2.033-0.679l-0.674,0.746c0.724,0.613,1.634,0.918,2.734,0.918c0.797,0,1.473-0.182,2.027-0.545
		c0.555-0.364,0.832-0.893,0.832-1.585c0-0.585-0.198-1.047-0.598-1.385c-0.398-0.337-1.002-0.604-1.808-0.798
		c-0.587-0.151-0.992-0.306-1.218-0.466c-0.224-0.16-0.337-0.381-0.337-0.666c0-0.284,0.121-0.508,0.358-0.672
		c0.238-0.165,0.563-0.247,0.977-0.247c0.329,0,0.644,0.049,0.942,0.146c0.296,0.099,0.611,0.249,0.94,0.454l0.537-0.772
		c-0.357-0.266-0.734-0.466-1.128-0.599C161.937,29.387,161.492,29.321,160.997,29.321L160.997,29.321L160.997,29.321z
		 M170.608,32.783c0-1.083-0.258-1.931-0.771-2.543c-0.515-0.612-1.251-0.918-2.214-0.918c-0.612,0-1.148,0.159-1.6,0.479
		c-0.456,0.32-0.804,0.761-1.045,1.325c-0.245,0.564-0.366,1.21-0.366,1.937c0,1.119,0.283,1.998,0.848,2.637
		c0.563,0.639,1.348,0.958,2.355,0.958c0.918,0,1.761-0.293,2.53-0.878l-0.551-0.732c-0.32,0.213-0.627,0.368-0.921,0.466
		c-0.293,0.098-0.612,0.146-0.962,0.146c-0.549,0-0.999-0.182-1.348-0.546c-0.349-0.363-0.549-0.932-0.604-1.705h4.618
		C170.6,33.195,170.608,32.986,170.608,32.783L170.608,32.783L170.608,32.783z M169.356,32.503h-3.396
		c0.091-1.474,0.655-2.21,1.689-2.21c0.569,0,0.996,0.182,1.28,0.545c0.284,0.365,0.426,0.893,0.426,1.585V32.503L169.356,32.503z
		 M175.759,29.321c-0.459,0-0.877,0.107-1.256,0.32c-0.382,0.213-0.701,0.506-0.957,0.878l-0.11-1.039h-1.085v7.018h1.263v-4.98
		c0.258-0.399,0.533-0.705,0.825-0.919c0.294-0.212,0.635-0.319,1.019-0.319c0.376,0,0.66,0.103,0.854,0.306
		c0.192,0.204,0.287,0.555,0.287,1.052v4.86h1.265v-5.033c0-0.666-0.185-1.189-0.558-1.571
		C176.935,29.512,176.419,29.321,175.759,29.321L175.759,29.321L175.759,29.321z M182.37,29.321c-0.494,0-0.939,0.082-1.34,0.247
		c-0.397,0.164-0.71,0.395-0.933,0.692c-0.226,0.297-0.339,0.627-0.339,0.991c0,0.506,0.172,0.924,0.516,1.252
		c0.345,0.329,0.901,0.59,1.671,0.786c0.477,0.125,0.839,0.242,1.086,0.353c0.247,0.111,0.422,0.239,0.521,0.385
		c0.102,0.146,0.152,0.34,0.152,0.58c0,0.329-0.139,0.588-0.418,0.779c-0.28,0.191-0.658,0.287-1.134,0.287
		c-0.743,0-1.421-0.226-2.035-0.679l-0.674,0.746c0.724,0.613,1.635,0.918,2.734,0.918c0.8,0,1.474-0.182,2.029-0.545
		c0.553-0.364,0.83-0.893,0.83-1.585c0-0.585-0.199-1.047-0.597-1.385c-0.401-0.337-1.002-0.604-1.807-0.798
		c-0.588-0.151-0.993-0.306-1.219-0.466c-0.225-0.16-0.337-0.381-0.337-0.666c0-0.284,0.12-0.508,0.359-0.672
		c0.236-0.165,0.563-0.247,0.976-0.247c0.328,0,0.643,0.049,0.942,0.146c0.296,0.099,0.61,0.249,0.94,0.454l0.537-0.772
		c-0.358-0.266-0.734-0.466-1.129-0.599C183.311,29.387,182.867,29.321,182.37,29.321L182.37,29.321L182.37,29.321z M189.116,29.321
		c-0.651,0-1.213,0.155-1.686,0.466s-0.836,0.745-1.093,1.305c-0.256,0.559-0.384,1.211-0.384,1.957c0,1.127,0.282,2.01,0.844,2.649
		c0.562,0.639,1.336,0.958,2.318,0.958c0.814,0,1.553-0.257,2.212-0.772l-0.578-0.799c-0.293,0.187-0.559,0.321-0.797,0.406
		c-0.238,0.084-0.499,0.126-0.784,0.126c-0.594,0-1.052-0.211-1.373-0.632c-0.323-0.421-0.483-1.077-0.483-1.964
		s0.163-1.558,0.49-2.01c0.324-0.453,0.78-0.679,1.366-0.679c0.293,0,0.562,0.042,0.806,0.126c0.242,0.085,0.493,0.216,0.75,0.394
		l0.604-0.772c-0.33-0.267-0.674-0.459-1.03-0.579C189.939,29.38,189.546,29.321,189.116,29.321L189.116,29.321L189.116,29.321z
		 M196.208,29.321c-0.86,0-1.576,0.377-2.144,1.132v-3.915l-1.267,0.133v9.826h1.267v-4.993c0.255-0.39,0.53-0.692,0.823-0.906
		c0.293-0.212,0.629-0.319,1.003-0.319c0.377,0,0.663,0.103,0.859,0.306c0.197,0.204,0.297,0.555,0.297,1.052v4.86h1.263v-5.033
		c0-0.666-0.185-1.189-0.556-1.571C197.383,29.512,196.868,29.321,196.208,29.321L196.208,29.321L196.208,29.321z M205.489,34.859
		v-3.208c0-0.746-0.211-1.32-0.632-1.725c-0.423-0.403-1.061-0.605-1.912-0.605c-0.77,0-1.604,0.159-2.501,0.479l0.315,0.893
		c0.77-0.249,1.422-0.374,1.952-0.374c0.513,0,0.892,0.107,1.141,0.32c0.247,0.213,0.371,0.568,0.371,1.064v0.519h-1.113
		c-1.018,0-1.803,0.2-2.356,0.6c-0.556,0.399-0.831,0.972-0.831,1.718c0,0.63,0.205,1.141,0.617,1.532s0.977,0.585,1.69,0.585
		c0.952,0,1.672-0.35,2.159-1.052c0.109,0.338,0.278,0.586,0.508,0.746c0.229,0.16,0.531,0.261,0.907,0.306l0.29-0.852
		c-0.202-0.071-0.354-0.176-0.455-0.313C205.538,35.354,205.489,35.144,205.489,34.859L205.489,34.859L205.489,34.859z
		 M202.519,35.738c-0.413,0-0.724-0.107-0.934-0.319c-0.213-0.213-0.317-0.528-0.317-0.945c0-0.959,0.67-1.438,2.008-1.438h0.948
		v1.611C203.812,35.375,203.243,35.738,202.519,35.738L202.519,35.738L202.519,35.738z M210.156,27.497
		c0.431,0,0.853,0.089,1.264,0.267l0.398-0.892c-0.301-0.125-0.583-0.216-0.845-0.273c-0.261-0.058-0.557-0.086-0.886-0.086
		c-0.716,0-1.271,0.184-1.672,0.552c-0.398,0.369-0.596,0.854-0.596,1.458v0.958h-1.294v0.946h1.294v6.072h1.262v-6.072h1.624
		l0.137-0.946h-1.761v-0.972c0-0.346,0.084-0.601,0.249-0.766C209.496,27.579,209.771,27.497,210.156,27.497L210.156,27.497
		L210.156,27.497z M215.476,35.365c-0.358,0.187-0.679,0.28-0.963,0.28c-0.311,0-0.534-0.082-0.666-0.246
		c-0.134-0.165-0.199-0.428-0.199-0.792v-4.181h1.581l0.137-0.946h-1.718v-1.731l-1.267,0.147v1.583h-1.263v0.946h1.263v4.234
		c0,0.648,0.174,1.143,0.517,1.484c0.344,0.341,0.823,0.512,1.437,0.512c0.604,0,1.146-0.159,1.623-0.479L215.476,35.365
		L215.476,35.365z M218.237,36.657c0.368,0,0.702-0.08,1.005-0.24l-0.329-0.852c-0.139,0.053-0.294,0.08-0.467,0.08
		c-0.166,0-0.284-0.044-0.352-0.133c-0.071-0.089-0.104-0.231-0.104-0.426v-8.574l-1.264,0.146v8.455
		c0,0.488,0.137,0.868,0.404,1.139C217.4,36.521,217.771,36.657,218.237,36.657L218.237,36.657L218.237,36.657z M220.822,29.48
		v7.018h1.266V29.48H220.822L220.822,29.48z M221.441,26.112c-0.256,0-0.468,0.08-0.632,0.24c-0.167,0.16-0.249,0.359-0.249,0.6
		c0,0.239,0.082,0.437,0.249,0.592c0.164,0.156,0.376,0.233,0.632,0.233c0.266,0,0.48-0.078,0.646-0.233
		c0.166-0.155,0.246-0.353,0.246-0.592c0-0.241-0.08-0.439-0.246-0.6S221.707,26.112,221.441,26.112L221.441,26.112L221.441,26.112z
		 M226.983,29.321c-0.65,0-1.211,0.155-1.683,0.466s-0.837,0.745-1.094,1.305c-0.257,0.559-0.386,1.211-0.386,1.957
		c0,1.127,0.283,2.01,0.847,2.649c0.563,0.639,1.336,0.958,2.315,0.958c0.816,0,1.555-0.257,2.214-0.772l-0.577-0.799
		c-0.293,0.187-0.559,0.321-0.797,0.406c-0.239,0.084-0.502,0.126-0.783,0.126c-0.598,0-1.056-0.211-1.376-0.632
		c-0.319-0.421-0.479-1.077-0.479-1.964s0.162-1.558,0.487-2.01c0.325-0.453,0.779-0.679,1.368-0.679
		c0.293,0,0.56,0.042,0.802,0.126c0.244,0.085,0.493,0.216,0.75,0.394l0.605-0.772c-0.331-0.267-0.673-0.459-1.03-0.579
		C227.809,29.38,227.414,29.321,226.983,29.321L226.983,29.321L226.983,29.321z M234.324,29.321c-0.861,0-1.576,0.377-2.144,1.132
		v-3.915l-1.265,0.133v9.826h1.265v-4.993c0.256-0.39,0.53-0.692,0.824-0.906c0.293-0.212,0.627-0.319,1.005-0.319
		c0.374,0,0.66,0.103,0.858,0.306c0.196,0.204,0.295,0.555,0.295,1.052v4.86h1.266v-5.033c0-0.666-0.187-1.189-0.559-1.571
		C235.5,29.512,234.985,29.321,234.324,29.321L234.324,29.321L234.324,29.321z M244.093,32.783c0-1.083-0.257-1.931-0.771-2.543
		c-0.512-0.612-1.25-0.918-2.213-0.918c-0.614,0-1.146,0.159-1.601,0.479c-0.452,0.32-0.803,0.761-1.046,1.325
		c-0.242,0.564-0.364,1.21-0.364,1.937c0,1.119,0.283,1.998,0.846,2.637c0.564,0.639,1.35,0.958,2.356,0.958
		c0.917,0,1.76-0.293,2.531-0.878l-0.55-0.732c-0.321,0.213-0.628,0.368-0.923,0.466c-0.292,0.098-0.613,0.146-0.961,0.146
		c-0.55,0-0.999-0.182-1.348-0.546c-0.348-0.363-0.55-0.932-0.606-1.705h4.621C244.083,33.195,244.093,32.986,244.093,32.783
		L244.093,32.783L244.093,32.783z M242.843,32.503h-3.398c0.094-1.474,0.657-2.21,1.692-2.21c0.568,0,0.995,0.182,1.278,0.545
		c0.284,0.365,0.428,0.893,0.428,1.585V32.503L242.843,32.503z M247.904,29.321c-0.494,0-0.942,0.082-1.339,0.247
		c-0.4,0.164-0.712,0.395-0.937,0.692c-0.223,0.297-0.336,0.627-0.336,0.991c0,0.506,0.172,0.924,0.515,1.252
		c0.344,0.329,0.901,0.59,1.67,0.786c0.478,0.125,0.84,0.242,1.087,0.353c0.249,0.111,0.422,0.239,0.522,0.385
		c0.101,0.146,0.15,0.34,0.15,0.58c0,0.329-0.139,0.588-0.419,0.779c-0.279,0.191-0.658,0.287-1.134,0.287
		c-0.741,0-1.42-0.226-2.035-0.679l-0.674,0.746c0.725,0.613,1.638,0.918,2.737,0.918c0.796,0,1.472-0.182,2.027-0.545
		c0.554-0.364,0.83-0.893,0.83-1.585c0-0.585-0.197-1.047-0.599-1.385c-0.396-0.337-0.999-0.604-1.808-0.798
		c-0.585-0.151-0.991-0.306-1.214-0.466c-0.226-0.16-0.337-0.381-0.337-0.666c0-0.284,0.117-0.508,0.356-0.672
		c0.238-0.165,0.563-0.247,0.977-0.247c0.33,0,0.644,0.049,0.94,0.146c0.298,0.099,0.611,0.249,0.942,0.454l0.536-0.772
		c-0.357-0.266-0.733-0.466-1.128-0.599C248.844,29.387,248.399,29.321,247.904,29.321L247.904,29.321L247.904,29.321z"/>
	<polygon fill="#FFFFFF" points="120.358,24.693 120.358,59.194 122.455,59.194 122.455,24.693 120.358,24.693 	"/>
</g>
</svg>
